<?xml version="1.0" encoding="UTF-8"?>
<svg id="Camada_1" data-name="Camada 1" xmlns="http://www.w3.org/2000/svg" xmlns:xlink="http://www.w3.org/1999/xlink" viewBox="0 0 1024 1024">
  <defs>
    <style>
      .cls-1 {
        fill: #0077f2;
      }

      .cls-2 {
        fill: url(#Gradiente_sem_nome_13);
      }

      .cls-3 {
        fill: #009cff;
      }

      .cls-4 {
        fill: #00c9f2;
      }

      .cls-5 {
        fill: #00d4fb;
      }

      .cls-6 {
        fill: #00c9f5;
      }

      .cls-7 {
        fill: #0180fc;
      }

      .cls-8 {
        fill: #00bcef;
      }
    </style>
    <linearGradient id="Gradiente_sem_nome_13" data-name="Gradiente sem nome 13" x1="77.71" y1="682.05" x2="860.11" y2="494.26" gradientUnits="userSpaceOnUse">
      <stop offset="0" stop-color="#00d4fb"/>
      <stop offset=".47" stop-color="#0180fc"/>
    </linearGradient>
  </defs>
  <path class="cls-3" d="M626.51,406.22l-.05,1.56c-.17,5.4-2.63,10.48-6.8,13.92-31.55,26.02-64.61,50.01-99.06,71.89-.1.06-.19.12-.29.18-12.55,7.96-28.95-1.09-28.95-15.95v-183.55c0-8.44,5.58-15.94,13.72-18.16,1.26-.34,2.47-.58,3.54-.7,21.55-2.42,79.05-2.45,100.56.02,11.68,1.34,16.31,7.35,17.32,18.7,3.1,35.15-2.43,74.64-.03,110.34.04.58.05,1.17.03,1.75Z"/>
  <path class="cls-2" d="M818.2,434.23c4.11-4.1,11.19-.79,10.53,4.98,0,.08-.02.14-.03.19-2.58,12.86-7.74,26.97-10.93,40.12-29.58,122.62-24.4,209.48-136.83,287.91-135.62,94.63-370.18,127.11-515.73,39.02-77.9-47.14-111.43-124.23-98.04-203.07.26-1.46.53-2.91.8-4.37,5.37-28.04,16.69-56.24,34.04-83.33,47.44-74.07,131.85-132.86,216.76-154.7-.38,2.31-2.79,2.82-4.53,3.71-34.05,17.38-64.55,35.59-93.05,61.54-55.44,50.52-89.56,118.61-81.92,182.55,1.61,13.48,5.07,26.78,10.6,39.7,10.99,25.71,30.11,49.89,58.86,70.92,25.09,18.36,67.01,40.04,94.98,47.67,121.93,33.27,288.69,17.79,390.99-72.94,4.37-3.86,7.77-9.5,12.79-11.98.27-2.99-2.72-.89-4.07-.32-3.31,1.39-15.74,8.47-24.89,12.61-4.45,2.01-9.42-1.67-8.68-6.5.1-.65.17-1.31.19-1.97,1.17-33.39-2.55-86.64-.97-123.67.08-1.96,1.11-3.74,2.74-4.84,51.46-34.48,98.66-75.62,146.4-123.24Z"/>
  <path class="cls-6" d="M447.08,537.66c-30.21,16.78-61.89,32.44-94.66,45.31-12.57,4.93-26.15-4.41-26.15-17.91v-161.54c0-7.71,3.35-18.36,14.35-18.44,28.58-.21,67.94.23,97.07.08,15.79-.08,18.02,10.15,18.02,15.21,0,50.19,1.28,75.98,1.28,121.01,0,6.8-3.96,12.98-9.91,16.28Z"/>
  <path class="cls-1" d="M626.45,611.64v92.75c0,6.16-3.6,11.78-9.23,14.29-33.76,15.03-70.87,25.87-107.7,31.61-9.53,1.48-18.15-5.83-18.15-15.47v-80.02c0-6.77,4.36-12.77,10.8-14.88,36.41-11.9,69.95-25.98,101.49-42.22,10.41-5.36,22.79,2.23,22.79,13.94Z"/>
  <path class="cls-4" d="M300.83,522.24c0,13.21-.02,39.49-.03,62.69,0,9.26-6.32,17.33-15.31,19.54-14.88,3.65-29.91,6.55-45.08,8.55l-2.31.3c-16.43,2.19-33.41,4.44-60.35.75l-1.56-.21v-93.16c0-.92,0-19.06,18.7-18.7,29.35.56,55.57-.11,84.27-.15,22.68-.04,21.68,13.7,21.68,20.4Z"/>
  <path class="cls-8" d="M457.94,670.89l-.98,71.3c-.1,7.52-6.2,13.56-13.72,13.63-35.67.34-71.78-1.15-106.13-10.54-5.98-1.64-10.18-7.02-10.24-13.22l-.4-42.19c-.07-7.09,5.25-13.05,12.29-13.85,36.83-4.19,72.44-11.45,102.09-18.73,8.78-2.15,17.21,4.57,17.09,13.61Z"/>
  <path class="cls-7" d="M859.17,356.54l-15.83,19.46c-115.94,122.84-220.39,208.87-384.82,253.47-76.97,20.88-211.05,46.6-283.83,6.91,31.31,4.29,51.2,1.26,68.66-1.04,104.31-13.77,201.31-66.87,289.32-122.74,95.66-60.73,179.82-136.83,250.75-225.08l.53-2.95-67.95-37.9-2.5-4.23,236.83-76.28c6.11-1.24,10.76,4.89,8.99,10.55l-56.06,221.7c-.98,1.2-1.74,3.2-3.65,2.4-2.31-.97-27.24-33.11-32.25-38.34-1.3-1.36-6.19-7.26-8.18-5.91Z"/>
  <rect class="cls-5" x="632.41" y="195.96" width="59.52" height="59.52" rx="8.03" ry="8.03"/>
</svg>